<?xml version="1.0" encoding="UTF-8"?>
<svg width="24px" height="24px" viewBox="0 0 24 24" version="1.1" xmlns="http://www.w3.org/2000/svg" xmlns:xlink="http://www.w3.org/1999/xlink">
    <title>accont inactive</title>
    <g id="Design" stroke="none" stroke-width="1" fill="none" fill-rule="evenodd">
        <g id="Artboard" transform="translate(-452.000000, -56.000000)">
            <g id="ic/24/Profile/off" transform="translate(452.000000, 56.000000)">
                <rect id="Rectangle-Copy-3" opacity="0.100000001" x="0" y="0" width="24" height="24"></rect>
                <path d="M12,0.25 C18.4893458,0.25 23.75,5.51065419 23.75,12 C23.75,14.8089397 22.7643499,17.3876685 21.1200448,19.4091915 C21.1084369,19.4227047 21.0973832,19.4362398 21.0863023,19.4497476 L20.966621,19.5939425 C20.9449538,19.6195008 20.9231793,19.6449652 20.9012981,19.6703351 C20.8803453,19.6940899 20.859843,19.7176894 20.8392553,19.741199 C20.7966902,19.7902567 20.7532837,19.8389629 20.7094804,19.8873028 C20.6747784,19.9252794 20.6404048,19.9627562 20.6058096,19.9999903 C20.4662125,20.150333 20.3225441,20.2969645 20.1751462,20.4397691 C20.135362,20.4785228 20.0954784,20.516656 20.0553471,20.5544908 C20.0313592,20.576816 20.0073075,20.5992845 19.9831616,20.6216528 C19.9306706,20.6706408 19.87764,20.7189123 19.8242009,20.7666717 C19.8076002,20.781075 19.791292,20.7955588 19.7749432,20.8099978 C19.5246759,21.0316347 19.265039,21.2420676 18.9972932,21.4408374 C18.9626061,21.4659714 18.9281972,21.4912272 18.8936464,21.5162993 C18.8518803,21.5472146 18.8092089,21.5777446 18.766342,21.6079824 C18.7115903,21.6460188 18.6573811,21.6835829 18.6028433,21.7207001 C18.5736057,21.7411426 18.543825,21.7612053 18.5139553,21.7811292 C18.486973,21.7986107 18.4600225,21.8164354 18.4329946,21.8341516 C18.2361831,21.9635946 18.0353735,22.086678 17.8310358,22.2036038 C17.8055496,22.2179614 17.7798286,22.232564 17.7540474,22.247072 C17.7058017,22.2743977 17.6574298,22.3011446 17.6088688,22.327549 C17.2296459,22.5338328 16.8374226,22.7201149 16.434004,22.8846208 C16.4252892,22.8877237 16.4166298,22.8912393 16.4079657,22.8947446 C16.3110746,22.9344416 16.2134388,22.9724644 16.1151795,23.0092093 C16.1071745,23.011638 16.0998361,23.0143711 16.0924946,23.0170968 C15.1441166,23.3701451 14.1371363,23.6037557 13.0904024,23.7000759 C13.0638705,23.7022869 13.036907,23.704685 13.0099233,23.7069912 C12.9217775,23.7147043 12.8338144,23.7212025 12.7455873,23.7267271 C12.7279886,23.7277069 12.7099769,23.7287994 12.6919568,23.729851 C12.5846782,23.73619 12.4773917,23.7409656 12.3697405,23.7442931 C12.2469811,23.7480764 12.123649,23.75 12,23.75 L12.3497176,23.7448952 C12.2335601,23.7482905 12.1169797,23.75 12,23.75 C11.8830203,23.75 11.7664399,23.7482905 11.6502824,23.7448952 C11.6435621,23.744671 11.6368913,23.7444694 11.6302216,23.7442623 C11.5226083,23.7409656 11.4153218,23.73619 11.3084188,23.7299852 C11.2903167,23.7288388 11.2723092,23.7277481 11.2543098,23.7266166 C11.1661856,23.7212025 11.0782225,23.7147043 10.990534,23.7072431 C10.9634112,23.7047573 10.936422,23.7023598 10.9094528,23.6998705 C10.2237394,23.6369634 9.55494891,23.5149074 8.9083373,23.339019 C8.89467472,23.3348285 8.88103541,23.3310929 8.86740452,23.3273331 C8.65954825,23.2704512 8.45400179,23.2075301 8.25093552,23.1392119 C8.22039143,23.1285833 8.18936221,23.1180081 8.15838388,23.1073044 C8.08581561,23.0825433 8.01418541,23.0569803 7.94287989,23.0307456 C7.90740223,23.0174339 7.87138532,23.0039943 7.83544201,22.9903796 C7.77902766,22.9692251 7.7233733,22.9476312 7.66792619,22.9256274 C7.61451511,22.9042769 7.56087548,22.8825498 7.50741094,22.86043 C7.45903465,22.8405109 7.41097861,22.8202303 7.3630869,22.7996403 C7.32470586,22.7830984 7.28617488,22.7663028 7.24773978,22.7493017 C7.15272,22.7072393 7.05857599,22.6640454 6.96511103,22.619654 C6.94063991,22.6081515 6.91621932,22.5964591 6.89184052,22.5846825 C6.73160107,22.5070709 6.57317771,22.4259548 6.41688782,22.3413991 C6.35834545,22.3100839 6.30006997,22.2779326 6.24206913,22.2452845 C6.21752564,22.2310615 6.19313058,22.2172055 6.16879016,22.2032648 C6.12413459,22.1781291 6.07938303,22.1521192 6.03480187,22.1258115 L5.98941165,22.0984089 C5.90845254,22.0501181 5.82812309,22.0008813 5.74843855,21.9507139 C5.68731216,21.9127788 5.62688395,21.8739648 5.56680258,21.8345892 C5.5419955,21.8177581 5.51705193,21.8012718 5.49217517,21.7846932 C5.44426962,21.7533527 5.39650892,21.7210184 5.34897753,21.6883258 C5.31500503,21.6643695 5.28074414,21.6405359 5.24661682,21.6165251 C5.19333667,21.5796265 5.14093027,21.542102 5.08881865,21.5041359 C5.06123581,21.4834597 5.03314026,21.4628041 5.00514033,21.442027 C4.81657863,21.302642 4.63252409,21.1573191 4.45265065,21.0063485 C4.43069472,20.9874953 4.40876603,20.9689623 4.38690637,20.9503505 C4.34846098,20.9180103 4.31005017,20.8848623 4.27183827,20.8514536 C4.23394146,20.8179789 4.19634969,20.7847037 4.15897384,20.7511925 C4.11304548,20.710297 4.06734056,20.6686455 4.02193851,20.6266128 C3.97977145,20.5873567 3.93802083,20.5481569 3.89655853,20.5086572 C3.87385499,20.4871947 3.85095604,20.4651935 3.82813841,20.4430932 C3.6709584,20.2907749 3.51830713,20.1345656 3.37006896,19.9742163 L3.35414002,19.9569457 C3.35267157,19.9553509 3.35121101,19.9537509 3.34975837,19.9521457 C1.42519688,17.859837 0.25,15.0671595 0.25,12 C0.25,5.51065419 5.51065419,0.25 12,0.25 Z M12.5,14.75 C9.28089495,14.75 6.37956747,16.5038045 4.85385638,19.2438438 L4.85385638,19.2438438 L4.817,19.31 L4.85000884,19.3444022 C4.87547051,19.3691941 4.90106064,19.3938546 4.92677813,19.4183828 C4.99778481,19.4863349 5.07016184,19.553459 5.14340713,19.6194631 L4.92677813,19.4183828 C5.04038892,19.5267397 5.1564853,19.6325132 5.27497302,19.7356093 L5.14340713,19.6194631 C5.21158543,19.6809012 5.28051602,19.7413688 5.35017892,19.8008547 L5.27497302,19.7356093 C5.34296959,19.7947731 5.4117537,19.8530551 5.48130754,19.9104374 L5.35017892,19.8008547 C5.44456145,19.8814489 5.54028823,19.9602409 5.6373096,20.0372025 L5.48130754,19.9104374 C5.55412881,19.9705155 5.62779382,20.0296075 5.70228214,20.0876929 L5.6373096,20.0372025 C5.71198485,20.0964381 5.78742702,20.1545893 5.86361347,20.2116433 L5.70228214,20.0876929 C5.80273636,20.1660263 5.90468791,20.2425292 6.00808667,20.3171514 C6.07139329,20.3635841 6.13555882,20.4087985 6.20020934,20.4532521 L6.00808667,20.3171514 C6.10388933,20.3862915 6.20093438,20.453817 6.29918193,20.5196882 L6.20020934,20.4532521 C6.28423265,20.5110263 6.36907514,20.5675155 6.45470886,20.6227035 L6.29918193,20.5196882 C6.38371074,20.5763615 6.46912969,20.6318102 6.55541336,20.6860088 L6.45470886,20.6227035 C6.54781219,20.6827055 6.6418508,20.7411695 6.73678872,20.7980751 L6.55541336,20.6860088 C6.64423942,20.7418044 6.73398191,20.7962752 6.82461315,20.8493935 L6.73678872,20.7980751 C6.8459918,20.8635312 6.95638476,20.9269253 7.06791289,20.9882263 L6.82461315,20.8493935 C6.9500721,20.9229241 7.07723407,20.993863 7.20602555,21.0621367 L7.06791289,20.9882263 C7.15023105,21.0334722 7.23316764,21.0775777 7.31670065,21.1205304 L7.20602555,21.0621367 C7.29198846,21.1077065 7.37867731,21.152089 7.46607026,21.1952623 L7.31670065,21.1205304 C7.41197326,21.1695196 7.50802172,21.2170091 7.60481337,21.2629804 L7.46607026,21.1952623 C7.55776311,21.2405598 7.65023104,21.2845262 7.74344883,21.3271362 L7.60481337,21.2629804 C7.67872685,21.2980857 7.75307371,21.3323056 7.82783942,21.3656319 L7.74344883,21.3271362 C7.85714864,21.3791086 7.97196402,21.4290632 8.08784915,21.476954 C8.1608971,21.5073827 8.23425229,21.5366724 8.30796809,21.5651155 L8.08784915,21.476954 C8.17915446,21.514687 8.27112386,21.5511388 8.36373494,21.5862872 L8.30796809,21.5651155 C8.40531173,21.6026754 8.50328419,21.6387588 8.60185551,21.6733489 L8.36373494,21.5862872 C8.4683019,21.6259731 8.57368691,21.6639973 8.67985773,21.7003274 L8.60185551,21.6733489 C8.69202224,21.7049896 8.78269004,21.7353807 8.87383599,21.7645091 L8.67985773,21.7003274 C8.90612979,21.7777545 9.13597101,21.8474873 9.36906922,21.9092135 C9.44683084,21.9296411 9.5248803,21.9493105 9.60322301,21.9680692 L9.36906922,21.9092135 C9.46587953,21.9348496 9.56325163,21.9591047 9.66116318,21.9819564 L9.60322301,21.9680692 C9.70745676,21.9930274 9.81220961,22.0163737 9.91744978,22.03809 L9.66116318,21.9819564 C9.76642318,22.0065231 9.87230664,22.0294679 9.97878575,22.0507629 L9.91744978,22.03809 C10.0132585,22.0578601 10.1094712,22.0762793 10.2060637,22.0933338 L9.97878575,22.0507629 C10.0966003,22.0743249 10.215144,22.0958672 10.3343794,22.1153522 L10.2060637,22.0933338 C10.3415843,22.1172615 10.4778527,22.138503 10.6148028,22.1570205 L10.3343794,22.1153522 C10.4729603,22.1379985 10.6124754,22.1578657 10.7528656,22.1748948 L10.6148028,22.1570205 C10.71261,22.1702454 10.8107648,22.1820809 10.9092431,22.1925133 L10.7528656,22.1748948 C10.8498341,22.1866568 10.94722,22.1970649 11.0450041,22.2060994 L10.9092431,22.1925133 C11.0307608,22.2053864 11.1527712,22.2161231 11.2752288,22.2246974 L11.0450041,22.2060994 C11.2531616,22.2253317 11.4631228,22.2383398 11.6746999,22.244936 L12,22.25 C12.1096104,22.25 12.2189326,22.2482693 12.3279351,22.2448269 C12.3346637,22.2446424 12.3420188,22.2444039 12.349372,22.2441576 L12.3279351,22.2448269 C12.4312456,22.2415643 12.534269,22.2367641 12.6369787,22.2304427 L12.349372,22.2441576 C12.4633171,22.2403412 12.576791,22.2346649 12.6897642,22.2271583 L12.6369787,22.2304427 C12.7446157,22.223818 12.8519081,22.2155227 12.9588255,22.2055753 L12.6897642,22.2271583 C12.8057194,22.2194535 12.9211472,22.2098203 13.0360157,22.1982907 L12.9588255,22.2055753 C13.0456636,22.1974961 13.1322543,22.1883271 13.218581,22.1780783 L13.0360157,22.1982907 C13.1428326,22.1875692 13.249166,22.1752077 13.3549902,22.1612318 L13.218581,22.1780783 C13.3359909,22.1641395 13.4529126,22.1482033 13.5693049,22.1302952 L13.3549902,22.1612318 C13.4546704,22.1480674 13.5538989,22.1334705 13.6526543,22.1174625 L13.5693049,22.1302952 C13.7958265,22.0954426 14.0203429,22.0531208 14.2425499,22.003516 C14.2699549,21.9978195 14.2969351,21.9916811 14.3238746,21.9854365 L14.2425499,22.003516 C14.3534832,21.9787515 14.463841,21.9521719 14.5735853,21.9238002 L14.3238746,21.9854365 C14.4217646,21.9627456 14.5191171,21.9386522 14.6159099,21.9131789 L14.5735853,21.9238002 C14.6583064,21.9018977 14.7426618,21.8789272 14.8266343,21.8548994 L14.6159099,21.9131789 C14.7256567,21.8842963 14.834684,21.8536396 14.9429591,21.8212413 L14.8266343,21.8548994 C15.1510489,21.7620716 15.4697469,21.6534626 15.7817237,21.5296871 C15.8205684,21.5143726 15.8589366,21.4988604 15.8971886,21.4831234 L15.7817237,21.5296871 C15.8682003,21.4953778 15.9541606,21.4599032 16.039583,21.4232764 L15.8971886,21.4831234 C15.9947926,21.4429689 16.0916403,21.4013515 16.1877045,21.3582983 L16.039583,21.4232764 C16.1302357,21.384407 16.2202827,21.34424 16.3096984,21.3027909 L16.1877045,21.3582983 C16.2740407,21.3196048 16.3597441,21.2797518 16.4447946,21.2387589 L16.3096984,21.3027909 C16.4090081,21.2567555 16.5075392,21.2091387 16.6052565,21.1599618 L16.4447946,21.2387589 C16.5300451,21.1976696 16.6146398,21.1554351 16.6985587,21.1120754 L16.6052565,21.1599618 C16.7220565,21.1011816 16.8376939,21.0401726 16.9521089,20.9769714 L16.6985587,21.1120754 C16.8187866,21.0499554 16.9376275,20.9855257 17.0550226,20.9188452 L16.9521089,20.9769714 C17.0355915,20.9308568 17.1184234,20.8835752 17.2005812,20.8351407 L17.0550226,20.9188452 C17.142407,20.8692107 17.2289904,20.8183292 17.3147485,20.7662246 L17.2005812,20.8351407 C17.2883551,20.7833954 17.3753598,20.7303342 17.4615668,20.6759745 L17.3147485,20.7662246 C17.4049509,20.7114198 17.4942403,20.655262 17.5825886,20.5977794 L17.4615668,20.6759745 C17.5459006,20.6227959 17.6294712,20.5683746 17.7122518,20.5127268 L17.5825886,20.5977794 C17.6589869,20.5480718 17.7346815,20.4973735 17.8096541,20.4457028 L17.7122518,20.5127268 C17.7916141,20.459377 17.8702504,20.4048999 17.9481373,20.3493098 L17.8096541,20.4457028 C17.9248333,20.3663219 18.0383085,20.2846457 18.1500137,20.2007404 C18.1933905,20.1688813 18.2363366,20.1360819 18.2790335,20.1029348 L18.1500137,20.2007404 C18.2183005,20.149448 18.2859259,20.0973226 18.3528746,20.0443792 L18.2790335,20.1029348 C18.3568875,20.0424941 18.4339131,19.9808974 18.5100848,19.9181604 L18.3528746,20.0443792 C18.4434681,19.9727375 18.5328227,19.899598 18.620901,19.8249983 L18.5100848,19.9181604 C18.5835459,19.8576559 18.6562128,19.7960908 18.7280628,19.7334789 L18.620901,19.8249983 C18.6890246,19.7672996 18.7563847,19.7087273 18.8229641,19.6492987 L18.7280628,19.7334789 C18.9821286,19.5120796 19.2259788,19.2775928 19.4586044,19.0306357 C19.4872772,19.0004005 19.515384,18.9702307 19.5433102,18.939892 L19.7029108,18.7619723 L19.789,18.659 L19.7450883,18.5917654 C18.1899733,16.2985523 15.6293209,14.8522286 12.8037227,14.7552089 L12.8037227,14.7552089 Z M12,1.75 C6.33908131,1.75 1.75,6.33908131 1.75,12 C1.75,14.2931213 2.5030191,16.4103657 3.77526897,18.1179446 C5.61522696,15.1365281 8.88706545,13.25 12.5,13.25 C15.7948904,13.25 18.8176611,14.8181735 20.7256101,17.3826358 C21.6916215,15.8188677 22.25,13.974642 22.25,12 C22.25,6.33908131 17.6609187,1.75 12,1.75 Z M12,4.25 C14.0710678,4.25 15.75,5.92893219 15.75,8 C15.75,10.0710678 14.0710678,11.75 12,11.75 C9.92893219,11.75 8.25,10.0710678 8.25,8 C8.25,5.92893219 9.92893219,4.25 12,4.25 Z M12,5.75 C10.7573593,5.75 9.75,6.75735931 9.75,8 C9.75,9.24264069 10.7573593,10.25 12,10.25 C13.2426407,10.25 14.25,9.24264069 14.25,8 C14.25,6.75735931 13.2426407,5.75 12,5.75 Z" id="Combined-Shape" fill="#1A1F36" fill-rule="nonzero"></path>
            </g>
        </g>
    </g>
</svg>